# xmcd
#
# Track frame offsets:
# 150
# 16926
# 35076
# 46440
# 63995
# 76318
# 87477
# 99338
# 111279
# 123180
# 133614
# 146547
# 156562
# 169802
# 181508
# 192651
# 206976
# 220827
# 229932
# 244422
#
# Disc length: 3404 seconds
#
#
# Revision: 0
# Processed by: cddbd v1.5.1PL2 Copyright (c) Steve Scherf et al.
# Submitted via: FreeRIP 2.944 
#
DISCID=240d4a14
DTITLE=Trebonska Dvanactka a Vysocinka - Dechovka Krasna 5
DYEAR=2004
DGENRE=Country
TTITLE0=Jedina rybicka
TTITLE1=Lipenske spominky
TTITLE2=Regent
TTITLE3=V dalce hraji
TTITLE4=Vic uz nic
TTITLE5=Stroj se uz nevesto
TTITLE6=U trebone zaprahuji
TTITLE7=Vltavska polka
TTITLE8=Jaka je to tezka vec
TTITLE9=Preletely lastovicky
TTITLE10=Manicko moje
TTITLE11=Na prvni me spatreni
TTITLE12=Svadlenky
TTITLE13=Tise sumi vitr
TTITLE14=Pepicku tes se
TTITLE15=Cesticka do Dubi
TTITLE16=Na veselskem rynecku
TTITLE17=Lanzhotsky valcik
TTITLE18=Nasel jsem praminek
TTITLE19=Uz cerne vlasky
EXTD=
EXTT0=TREBONSKA DVANACTKA
EXTT1=TREBONSKA DVANACTKA
EXTT2=TREBONSKA DVANACTKA
EXTT3=TREBONSKA DVANACTKA
EXTT4=TREBONSKA DVANACTKA
EXTT5=TREBONSKA DVANACTKA
EXTT6=TREBONSKA DVANACTKA
EXTT7=TREBONSKA DVANACTKA
EXTT8=TREBONSKA DVANACTKA
EXTT9=TREBONSKA DVANACTKA
EXTT10=VYSOCINKA
EXTT11=VYSOCINKA
EXTT12=VYSOCINKA
EXTT13=VYSOCINKA
EXTT14=VYSOCINKA
EXTT15=VYSOCINKA
EXTT16=VYSOCINKA
EXTT17=VYSOCINKA
EXTT18=VYSOCINKA
EXTT19=VYSOCINKA
PLAYORDER=
